<svg viewBox="0 0 520 90" xmlns="http://www.w3.org/2000/svg">
  <line x1="30" y1="45" x2="490" y2="45" stroke="#111827" stroke-width="2"/>
  <g font-family="Arial" font-size="10" text-anchor="middle">
    <g><line x1="40" y1="38" x2="40" y2="52" stroke="#111827"/><text x="40" y="66">-3</text></g>
    <g><line x1="110" y1="38" x2="110" y2="52" stroke="#111827"/><text x="110" y="66">-2</text></g>
    <g><line x1="180" y1="38" x2="180" y2="52" stroke="#111827"/><text x="180" y="66">-1</text></g>
    <g><line x1="250" y1="34" x2="250" y2="56" stroke="#047857" stroke-width="2"/><text x="250" y="66" fill="#047857">0</text></g>
    <g><line x1="320" y1="38" x2="320" y2="52" stroke="#111827"/><text x="320" y="66">1</text></g>
    <g><line x1="390" y1="38" x2="390" y2="52" stroke="#111827"/><text x="390" y="66">2</text></g>
    <g><line x1="460" y1="38" x2="460" y2="52" stroke="#111827"/><text x="460" y="66">3</text></g>
  </g>
  <circle cx="110" cy="45" r="5" fill="#2563EB"/>
  <circle cx="390" cy="45" r="5" fill="#2563EB"/>
  <path d="M110 22 Q250 2 390 22" fill="none" stroke="#2563EB" stroke-width="1.5" stroke-dasharray="4 3"/>
  <text x="250" y="14" font-size="10" text-anchor="middle" font-family="Arial" fill="#1D4ED8">stessa distanza = 2</text>
</svg>